<?xml version="1.0" encoding="utf-8"?>
<!-- Generator: Adobe Illustrator 16.0.4, SVG Export Plug-In . SVG Version: 6.00 Build 0)  -->
<!DOCTYPE svg PUBLIC "-//W3C//DTD SVG 1.1//EN" "http://www.w3.org/Graphics/SVG/1.1/DTD/svg11.dtd">
<svg version="1.1" id="Layer_1" xmlns="http://www.w3.org/2000/svg" xmlns:xlink="http://www.w3.org/1999/xlink" x="0px" y="0px"
	 width="100px" height="100px" viewBox="0 0 100 100" enable-background="new 0 0 100 100" xml:space="preserve">
<g>
	<path fill="#FFFFFF" d="M30.794,8.247L27.546,5l3.249-3.249c0.427-0.427,0.118-0.81-0.309-1.237
		c-0.428-0.427-0.811-0.736-1.237-0.31L26,3.453l-3.249-3.249c-0.427-0.427-0.811-0.118-1.237,0.31
		c-0.428,0.427-0.737,0.811-0.31,1.237L24.453,5l-3.249,3.249c-0.427,0.428-0.118,0.811,0.31,1.237
		c0.427,0.427,0.81,0.736,1.237,0.309L26,6.545l3.249,3.249c0.427,0.427,0.81,0.118,1.237-0.309
		C30.912,9.058,31.222,8.675,30.794,8.247z"/>
</g>
<g>
	<path fill="#DDDDDD" d="M41.794,8.247L38.546,5l3.249-3.249c0.427-0.427,0.118-0.81-0.309-1.237
		c-0.428-0.427-0.811-0.736-1.237-0.31L37,3.453l-3.249-3.249c-0.427-0.427-0.811-0.118-1.237,0.31
		c-0.428,0.427-0.737,0.811-0.31,1.237L35.453,5l-3.249,3.249c-0.427,0.428-0.118,0.811,0.31,1.237
		c0.427,0.427,0.81,0.736,1.237,0.309L37,6.545l3.249,3.249c0.427,0.427,0.81,0.118,1.237-0.309
		C41.912,9.058,42.222,8.675,41.794,8.247z"/>
</g>
<g>
	<path fill="#999999" d="M49.427,8.08l4.421-7.135C54.189,0.426,53.938,0,53.29,0h-8.58c-0.648,0-0.898,0.426-0.558,0.945
		l4.42,7.135c0,0,0.179,0.253,0.429,0.253C49.25,8.333,49.427,8.08,49.427,8.08z"/>
</g>
<g>
	<path fill="#FFFFFF" d="M59.428,20.08l4.42-7.135C64.189,12.426,63.938,12,63.291,12h-8.58c-0.648,0-0.898,0.426-0.559,0.945
		l4.42,7.135c0,0,0.18,0.253,0.43,0.253C59.25,20.333,59.428,20.08,59.428,20.08z"/>
</g>
<g>
	<g>
		<path fill="#FFFFFF" d="M59.573,23.252l-4.418,7.133c-0.342,0.519-0.09,0.944,0.556,0.944h8.578c0.648,0,0.898-0.426,0.559-0.944
			l-4.419-7.133c0,0-0.18-0.253-0.43-0.253C59.751,23,59.573,23.252,59.573,23.252z"/>
		<path fill="#DDDDDD" d="M59.999,23c0.25,0,0.43,0.253,0.43,0.253l4.419,7.133c0.34,0.519,0.09,0.944-0.559,0.944h-8.578
			c-0.646,0-0.897-0.426-0.556-0.944l4.418-7.133C59.573,23.252,59.751,23,59.999,23 M59.999,22c-0.565,0-1.014,0.35-1.243,0.678
			l-0.017,0.023l-0.016,0.025l-4.419,7.133c-0.352,0.533-0.404,1.144-0.13,1.653c0.28,0.52,0.84,0.818,1.536,0.818h8.578
			c0.696,0,1.256-0.297,1.536-0.816c0.275-0.508,0.223-1.119-0.142-1.676l-4.404-7.111L61.262,22.7l-0.018-0.026
			C61.013,22.348,60.564,22,59.999,22L59.999,22z"/>
	</g>
</g>
<g>
	<path fill="#FFFFFF" d="M84.506,8.778L70.812,0.291C69.816-0.362,69,0.119,69,1.361v16.472c0,1.243,0.816,1.722,1.812,1.071
		l13.691-8.484c0,0,0.494-0.344,0.494-0.824C85,9.118,84.506,8.778,84.506,8.778z"/>
</g>
<g>
	<path fill="#FFFFFF" d="M98.631,6.583L88.359,0.219C87.611-0.271,87,0.09,87,1.022v12.353c0,0.933,0.611,1.292,1.359,0.803
		L98.63,7.815c0,0,0.369-0.258,0.369-0.617C99,6.839,98.631,6.583,98.631,6.583z"/>
</g>
<g>
	<path fill="#DC6E65" d="M62.427,8.08l4.421-7.135C67.188,0.426,66.938,0,66.289,0h-8.58c-0.646,0-0.898,0.426-0.559,0.945
		l4.42,7.135c0,0,0.181,0.253,0.43,0.253S62.427,8.08,62.427,8.08z"/>
</g>
<path fill="#FFFFFF" d="M19.092,2.728h-5.456C13.637,1.198,12.042,0,10,0C7.962,0,6.365,1.198,6.365,2.728H0.909
	C0.409,2.728,0,3.137,0,3.637V20c0,0.501,0.409,0.911,0.909,0.911h18.183c0.5,0,0.908-0.409,0.908-0.911V3.637
	C20,3.137,19.592,2.728,19.092,2.728z M10,1.091c1.608,0,2.729,0.862,2.729,1.636H7.274C7.274,1.953,8.395,1.091,10,1.091z
	 M18.45,17.87l-1.406,1.404H2.958L1.554,17.87v-2.862h1.852l0,0h3.636l0,0H18.45V17.87z M18.45,14.015H1.554V9.874H18.45V14.015z
	 M18.45,8.879H1.554V5.771l1.404-1.406h14.085l1.406,1.406L18.45,8.879L18.45,8.879z"/>
<g>
	<path fill="#FFFFFF" d="M29.326,47.381l-7.176-7.175c1.083-1.777,1.705-3.864,1.705-6.098C23.855,27.621,18.234,22,11.746,22
		C5.259,22,0,27.259,0,33.747c0,6.488,5.621,12.109,12.108,12.109c2.156,0,4.177-0.584,5.914-1.6l7.214,7.215
		c0.706,0.705,1.851,0.705,2.555,0l1.791-1.789C30.287,48.977,30.032,48.088,29.326,47.381z M3.615,33.747
		c0-4.491,3.641-8.132,8.131-8.132c4.492,0,8.495,4.002,8.495,8.493c0,4.492-3.641,8.133-8.133,8.133
		C7.617,42.241,3.615,38.238,3.615,33.747z"/>
</g>
<path fill="#DDDDDD" d="M37.114,13.462c-0.618,0.598-6.623,6.881-6.623,6.881C30.164,20.664,30,21.083,30,21.5
	c0,0.415,0.164,0.833,0.491,1.153c0,0,6.004,6.286,6.623,6.879c0.615,0.604,1.719,0.643,2.373,0c0.655-0.632,0.713-1.525,0-2.302
	l-5.508-5.73l5.508-5.728c0.713-0.783,0.655-1.672,0-2.31C38.833,12.825,37.729,12.867,37.114,13.462z"/>
<path fill="#DDDDDD" d="M45.886,29.538c0.619-0.598,6.624-6.88,6.624-6.88C52.836,22.336,53,21.917,53,21.5
	c0-0.415-0.164-0.833-0.49-1.153c0,0-6.005-6.286-6.624-6.879c-0.615-0.604-1.719-0.643-2.373,0c-0.655,0.632-0.714,1.525,0,2.303
	l5.507,5.73l-5.507,5.728c-0.714,0.783-0.655,1.673,0,2.31C44.167,30.175,45.271,30.133,45.886,29.538z"/>
<path fill="#FFFFFF" d="M37.114,30.462c-0.618,0.598-6.623,6.881-6.623,6.881C30.164,37.664,30,38.083,30,38.5
	c0,0.415,0.164,0.833,0.491,1.153c0,0,6.004,6.286,6.623,6.879c0.615,0.604,1.719,0.643,2.373,0c0.655-0.632,0.713-1.525,0-2.302
	l-5.508-5.73l5.508-5.728c0.713-0.783,0.655-1.672,0-2.31C38.833,29.825,37.729,29.867,37.114,30.462z"/>
<path fill="#FFFFFF" d="M45.886,46.538c0.619-0.598,6.624-6.88,6.624-6.88C52.836,39.336,53,38.917,53,38.5
	c0-0.415-0.164-0.833-0.49-1.153c0,0-6.005-6.286-6.624-6.879c-0.615-0.604-1.719-0.643-2.373,0c-0.655,0.632-0.714,1.525,0,2.303
	l5.507,5.73l-5.507,5.728c-0.714,0.783-0.655,1.673,0,2.31C44.167,47.175,45.271,47.133,45.886,46.538z"/>
</svg>
